# xmcd CD database file
# Copyright (C) 1993-1996 Ti Kan
#
# Track frame offsets:
#  150
#  22705
#  42428
#  57733
#  75058
#  94703
#  117198
#  137993
#  153260
#  169675
#
# Disc length: 2540 seconds
#
# Revision: 1
# Processed by: cddbd v1.5.2PL0 Copyright (c) Steve Scherf et al.
# Submitted via: Advanced CD Ripper Pro 2.0
#
DISCID=7109ea0a
DTITLE=Unknown Artist - Unknown Album
DYEAR=2003
DGENRE=
TTITLE0=AGUANTA CORAZON
TTITLE1=SABADO
TTITLE2=COSA ESTUPIDA
TTITLE3=YO Y TU
TTITLE4=SOLO A TI
TTITLE5=LLUVIA DE VERANO
TTITLE6=FUI YO
TTITLE7=AMARTE A TI
TTITLE8=LONDON LONDON
TTITLE9=AMANECIO
EXTD=
EXTT0=
EXTT1=
EXTT2=
EXTT3=
EXTT4=
EXTT5=
EXTT6=
EXTT7=
EXTT8=
EXTT9=
PLAYORDER=
